<svg width="30" height="30" viewBox="0 0 30 30" fill="none" xmlns="http://www.w3.org/2000/svg">
    <path d="M0.717847 10.4327C-0.742554 17.0542 1.87177 23.8894 5.97701 26.9847C12.5918 31.9721 21.9972 30.6528 26.9846 24.038C27.7102 23.0757 28.3022 22.0543 28.764 20.996L18.0661 22.4965C17.0406 22.6404 16.0927 21.9257 15.9488 20.9002L14.0074 8.56868L0.717847 10.4327Z" fill="#335EEA"/>
    <path d="M0.717847 10.4327L16.0719 8.27911C17.0974 8.13527 18.0453 8.84998 18.1892 9.87548L19.402 18.5224L29.8699 17.0542C30.5821 11.8474 28.5323 6.41917 24.0379 3.03049C17.4232 -1.9569 8.01777 -0.637651 3.03038 5.97712C1.98617 7.36206 1.21842 8.86932 0.717847 10.4327Z" fill="#335EEA"/>
</svg>